<?xml version="1.0" standalone="no"?>
<!DOCTYPE svg PUBLIC "-//W3C//DTD SVG 20010904//EN"
 "http://www.w3.org/TR/2001/REC-SVG-20010904/DTD/svg10.dtd">
<svg version="1.0" xmlns="http://www.w3.org/2000/svg"
 width="420.000000pt" height="120.000000pt" viewBox="0 0 420.000000 120.000000"
 preserveAspectRatio="xMidYMid meet">

<g transform="translate(0.000000,120.000000) scale(0.100000,-0.100000)"
fill="#000000" stroke="none">
<path d="M110 600 l0 -490 625 0 625 0 0 490 0 490 -625 0 -625 0 0 -490z
m334 315 c48 -23 71 -69 70 -140 -1 -71 -22 -118 -65 -144 l-30 -18 31 -13
c82 -34 116 -158 68 -249 -35 -68 -69 -81 -205 -81 -104 0 -113 1 -113 19 0
12 9 21 25 25 l25 6 0 275 0 275 -25 12 c-14 6 -25 19 -25 30 0 16 10 18 106
18 74 0 116 -5 138 -15z m534 -72 c2 -67 0 -83 -12 -83 -8 0 -21 20 -30 47
-24 71 -39 83 -108 83 l-58 0 0 -130 0 -130 39 0 c45 0 62 16 70 67 3 20 12
38 19 41 9 3 12 -28 12 -133 0 -104 -3 -136 -12 -133 -7 3 -16 24 -20 49 -9
51 -28 69 -75 69 l-33 0 0 -124 c0 -128 8 -156 46 -156 8 0 14 -9 14 -20 0
-20 -5 -21 -92 -18 -99 3 -120 16 -70 42 16 8 32 26 36 38 9 37 7 474 -3 501
-5 14 -21 27 -35 31 -25 6 -34 25 -19 40 4 3 79 5 167 4 l161 -3 3 -82z m292
70 c0 -10 -14 -26 -30 -35 l-30 -17 0 -260 c0 -223 2 -262 16 -275 8 -9 22
-16 30 -16 8 0 14 -9 14 -20 0 -19 -7 -20 -95 -20 -88 0 -95 1 -95 20 0 13 7
20 18 20 40 0 42 14 42 293 l0 268 -30 10 c-19 7 -30 18 -30 30 0 17 8 19 95
19 84 0 95 -2 95 -17z" fill="#0462a7"/>
<path d="M320 760 l0 -130 29 0 c17 0 42 10 56 23 22 18 27 34 32 83 10 106
-19 154 -93 154 l-24 0 0 -130z" fill="#0462a7"/>
<path d="M320 474 c0 -128 11 -164 51 -164 62 0 92 54 87 156 -4 90 -22 114
-92 121 l-46 6 0 -119z" fill="#0462a7"/>
<path d="M1740 760 l-145 -5 0 -163 0 -162 35 0 35 0 -3 70 -4 70 76 0 76 0 0
28 0 27 -75 -3 -75 -4 0 47 0 46 113 -3 112 -3 0 33 c0 17 0 31 0 30 0 -1 -65
-5 -145 -8z"/>
<path d="M1945 595 l0 -165 40 0 40 0 0 165 0 165 -40 0 -40 0 0 -165z"/>
<path d="M2095 595 l0 -165 30 0 30 0 -3 122 -3 123 91 -95 c49 -52 98 -107
107 -122 14 -22 25 -28 53 -28 l35 0 -3 165 -3 165 -32 0 -32 0 2 -112 3 -113
-100 104 c-54 57 -97 108 -94 113 3 4 -14 8 -38 8 l-43 0 0 -165z"/>
<path d="M2632 754 c6 -6 -115 -289 -133 -311 -9 -10 -3 -13 30 -13 22 0 40 3
39 8 -1 4 4 24 11 45 l13 37 79 0 79 0 19 -39 c11 -21 17 -41 14 -45 -4 -3 12
-6 35 -6 l41 0 -71 153 c-39 83 -71 158 -71 165 0 8 -16 12 -45 12 -25 0 -43
-3 -40 -6z m67 -123 c11 -27 21 -52 21 -55 0 -3 -23 -6 -51 -6 -28 0 -49 3
-47 8 2 4 11 28 22 55 10 26 22 47 26 47 4 0 17 -22 29 -49z"/>
<path d="M2925 595 l0 -165 30 0 30 0 -3 122 -2 123 109 -115 c60 -63 107
-118 104 -122 -2 -5 13 -8 34 -8 l38 0 0 165 0 165 -32 0 -33 0 0 -112 -1
-113 -98 105 c-54 58 -97 108 -94 113 2 4 -15 7 -39 7 l-43 0 0 -165z"/>
<path d="M3433 743 c-51 -17 -89 -59 -103 -113 -40 -149 147 -251 313 -171
l47 23 -17 29 c-17 28 -17 28 -38 9 -61 -57 -185 -51 -229 11 -20 30 -21 98 0
127 37 53 129 68 199 32 22 -11 40 -20 42 -20 1 0 9 13 17 28 l14 28 -57 17
c-69 20 -131 21 -188 0z"/>
<path d="M3758 601 l3 -160 149 -3 150 -3 0 28 0 27 -120 0 -120 0 0 40 0 40
80 0 80 0 0 28 0 27 -80 -3 -80 -4 0 47 0 46 120 -3 120 -3 0 28 0 27 -152 0
-153 0 3 -159z"/>
</g>
</svg>
