<?xml version="1.0" encoding="UTF-8" standalone="no" ?>
<!DOCTYPE svg PUBLIC "-//W3C//DTD SVG 1.1//EN" "http://www.w3.org/Graphics/SVG/1.1/DTD/svg11.dtd">
<svg xmlns="http://www.w3.org/2000/svg" xmlns:xlink="http://www.w3.org/1999/xlink" version="1.1" width="1080" height="1080" viewBox="-543 -532 1080 1080" xml:space="preserve">
<desc>Created with Fabric.js 5.2.4</desc>
<defs>
</defs>
<rect x="0" y="0" width="100%" height="100%" fill="transparent"></rect>
<g transform="matrix(1 0 0 1 540 540)" id="d2c9d487-fdec-4853-a469-b9a27b5c9cc8"  >
<rect style="stroke: none; stroke-width: 1; stroke-dasharray: none; stroke-linecap: butt; stroke-dashoffset: 0; stroke-linejoin: miter; stroke-miterlimit: 4; fill: rgb(255,255,255); fill-rule: nonzero; opacity: 1; visibility: hidden;" vector-effect="non-scaling-stroke"  x="-540" y="-540" rx="0" ry="0" width="1080" height="1080" />
</g>
<g transform="matrix(Infinity NaN NaN Infinity 0 0)" id="d2a205a6-1e0d-4c27-b741-97ec83c6b81a"  >
</g>
<g transform="matrix(12.12 0 0 7.53 -1.98 -100.86)" id="58a3df63-a86a-4eb0-9bab-fb908e357701"  >
<rect style="stroke: rgb(0,0,0); stroke-width: 0; stroke-dasharray: none; stroke-linecap: butt; stroke-dashoffset: 0; stroke-linejoin: miter; stroke-miterlimit: 4; fill: rgb(255,255,255); fill-rule: nonzero; opacity: 1;" vector-effect="non-scaling-stroke"  x="-33.085" y="-33.085" rx="0" ry="0" width="66.17" height="66.17" />
</g>
<g transform="matrix(0.06 0 0 -0.06 -1.02 -104.91)"  >
<path style="stroke: none; stroke-width: 1; stroke-dasharray: none; stroke-linecap: butt; stroke-dashoffset: 0; stroke-linejoin: miter; stroke-miterlimit: 4; fill: rgb(4,98,167); fill-rule: nonzero; opacity: 1;" vector-effect="non-scaling-stroke"  transform=" translate(-8860, -10515)" d="M 1310 10515 L 1310 4610 L 8860 4610 L 16410 4610 L 16410 10515 L 16410 16420 L 8860 16420 L 1310 16420 L 1310 10515 z M 5080 14396 C 5540 14271 5879 13955 6053 13490 C 6266 12920 6224 12073 5955 11515 C 5846 11289 5711 11125 5506 10971 C 5390 10883 5232 10786 5104 10722 C 5052 10697 5010 10670 5010 10664 C 5010 10657 5074 10630 5153 10604 C 5491 10492 5671 10394 5851 10223 C 6156 9933 6354 9584 6429 9210 C 6464 9031 6473 8933 6473 8705 C 6473 8107 6353 7653 6096 7275 C 6016 7156 5831 6972 5712 6891 C 5526 6765 5303 6676 5055 6628 C 4947 6607 4924 6606 3678 6603 L 2410 6599 L 2410 6810 L 2410 7020 L 2505 7020 C 2687 7020 2839 7069 2924 7153 C 2994 7223 3033 7313 3067 7480 C 3083 7559 3084 7767 3088 10415 C 3090 12440 3088 13300 3080 13387 C 3054 13671 2968 13821 2778 13914 C 2693 13955 2550 13998 2468 14007 L 2410 14013 L 2410 14222 L 2410 14431 L 3693 14428 L 4975 14425 L 5080 14396 z M 11720 13440 L 11720 12450 L 11581 12450 L 11443 12450 L 11410 12573 C 11270 13108 11139 13457 10993 13685 C 10928 13785 10799 13909 10720 13948 C 10591 14010 10598 14010 9908 14010 L 9280 14010 L 9280 12441 L 9280 10873 L 9621 10868 C 9991 10862 10055 10867 10167 10913 C 10407 11011 10560 11256 10630 11655 C 10652 11778 10670 11963 10670 12058 L 10670 12120 L 10810 12120 L 10950 12120 L 10950 10580 L 10950 9039 L 10808 9042 L 10665 9045 L 10658 9150 C 10599 10035 10425 10338 9952 10378 C 9904 10382 9733 10384 9572 10382 L 9279 10378 L 9282 8932 L 9285 7485 L 9307 7407 C 9349 7260 9412 7180 9530 7120 C 9641 7065 9816 7020 9921 7020 L 9980 7020 L 9980 6810 L 9980 6600 L 8880 6600 L 7780 6600 L 7780 6805 C 7780 6961 7783 7011 7793 7014 C 7799 7016 7855 7025 7915 7035 C 8124 7068 8283 7133 8365 7221 C 8423 7283 8466 7373 8488 7481 C 8504 7559 8505 7764 8505 10530 L 8505 13495 L 8479 13572 C 8429 13718 8353 13806 8213 13877 C 8128 13921 7990 13969 7865 13998 L 7785 14017 L 7782 14211 C 7781 14317 7782 14410 7784 14417 C 7788 14428 8168 14430 9755 14430 L 11720 14430 L 11720 13440 z M 15310 14220 L 15310 14010 L 15273 14010 C 15184 14010 14959 13940 14826 13872 C 14715 13815 14622 13730 14583 13652 L 14555 13595 L 14555 10540 L 14555 7485 L 14578 7407 C 14608 7301 14633 7256 14696 7189 C 14798 7082 14945 7031 15173 7023 L 15310 7017 L 15310 6809 L 15310 6600 L 14170 6600 L 13030 6600 L 13030 6809 L 13030 7017 L 13168 7023 C 13460 7035 13636 7125 13722 7306 C 13784 7437 13780 7219 13780 10542 L 13780 13579 L 13759 13636 C 13719 13743 13582 13853 13406 13921 C 13303 13960 13116 14010 13068 14010 L 13030 14010 L 13030 14220 L 13030 14430 L 14170 14430 L 15310 14430 L 15310 14220 z" stroke-linecap="round" />
</g>
<g transform="matrix(0.06 0 0 -0.06 -259.3 -219.09)"  >
<path style="stroke: none; stroke-width: 1; stroke-dasharray: none; stroke-linecap: butt; stroke-dashoffset: 0; stroke-linejoin: miter; stroke-miterlimit: 4; fill: rgb(4,98,167); fill-rule: nonzero; opacity: 1;" vector-effect="non-scaling-stroke"  transform=" translate(-4579.94, -12440)" d="M 3840 12440 L 3840 10868 L 4153 10873 C 4483 10878 4537 10885 4683 10935 C 4786 10971 4856 11016 4951 11110 C 5026 11185 5043 11209 5093 11310 C 5158 11442 5197 11555 5235 11725 C 5391 12422 5326 13281 5089 13635 C 4963 13824 4805 13926 4554 13981 C 4468 14000 4414 14003 4148 14007 L 3840 14012 L 3840 12440 z" stroke-linecap="round" />
</g>
<g transform="matrix(0.06 0 0 -0.06 -250.71 15.79)"  >
<path style="stroke: none; stroke-width: 1; stroke-dasharray: none; stroke-linecap: butt; stroke-dashoffset: 0; stroke-linejoin: miter; stroke-miterlimit: 4; fill: rgb(4,98,167); fill-rule: nonzero; opacity: 1;" vector-effect="non-scaling-stroke"  transform=" translate(-4720.11, -8700.06)" d="M 3840 9058 C 3840 8163 3844 7706 3851 7645 C 3890 7328 4062 7101 4315 7035 C 4393 7015 4578 7015 4677 7036 C 5216 7147 5526 7647 5590 8510 C 5611 8790 5599 9128 5560 9360 C 5524 9576 5458 9755 5366 9884 C 5282 10002 4973 10278 4871 10326 C 4772 10373 4701 10379 4253 10380 L 3840 10380 L 3840 9058 z" stroke-linecap="round" />
</g>
<g transform="matrix(0.06 0 0 -0.06 -418.62 429.43)"  >
<path style="stroke: none; stroke-width: 1; stroke-dasharray: none; stroke-linecap: butt; stroke-dashoffset: 0; stroke-linejoin: miter; stroke-miterlimit: 4; fill: rgb(255,255,255); fill-rule: nonzero; opacity: 1;" vector-effect="non-scaling-stroke"  transform=" translate(-2045, -2139.79)" d="M 2733 2934 L 2711 2910 L 2010 2910 C 1394 2910 1310 2908 1310 2895 C 1310 2887 1318 2880 1329 2880 C 1339 2880 1353 2874 1359 2866 C 1367 2857 1369 2650 1368 2109 L 1365 1366 L 1340 1360 C 1326 1357 1315 1348 1315 1340 C 1315 1327 1349 1325 1528 1322 C 1735 1320 1740 1320 1740 1340 C 1740 1353 1733 1360 1720 1360 C 1684 1360 1680 1399 1682 1709 L 1685 2005 L 2023 2008 L 2361 2010 L 2386 1985 C 2400 1971 2415 1960 2420 1960 C 2426 1960 2430 2032 2430 2140 C 2430 2329 2426 2343 2388 2295 L 2369 2270 L 2024 2270 L 1680 2270 L 1680 2460 L 1680 2650 L 2208 2648 L 2735 2645 L 2745 2623 C 2750 2610 2760 2600 2767 2600 C 2777 2600 2780 2642 2780 2780 C 2780 2973 2777 2982 2733 2934 z" stroke-linecap="round" />
</g>
<g transform="matrix(0.06 0 0 -0.06 435.11 430.69)"  >
<path style="stroke: none; stroke-width: 1; stroke-dasharray: none; stroke-linecap: butt; stroke-dashoffset: 0; stroke-linejoin: miter; stroke-miterlimit: 4; fill: rgb(255,255,255); fill-rule: nonzero; opacity: 1;" vector-effect="non-scaling-stroke"  transform=" translate(-15630, -2119.21)" d="M 16333 2934 L 16311 2910 L 15585 2910 C 14947 2910 14860 2908 14860 2895 C 14860 2887 14869 2880 14880 2880 C 14890 2880 14904 2871 14910 2861 C 14917 2847 14919 2602 14918 2108 L 14915 1375 L 14888 1362 C 14872 1355 14860 1342 14860 1334 C 14860 1322 14962 1320 15605 1320 C 16339 1320 16350 1320 16362 1300 C 16369 1289 16380 1280 16387 1280 C 16397 1280 16400 1321 16400 1455 C 16400 1559 16396 1630 16390 1630 C 16385 1630 16370 1619 16356 1605 L 16331 1580 L 15780 1580 L 15230 1580 L 15230 1795 L 15230 2010 L 15590 2010 L 15951 2010 L 15974 1985 C 16017 1939 16020 1948 16020 2140 C 16020 2329 16016 2343 15978 2295 L 15959 2270 L 15594 2270 L 15230 2270 L 15230 2460 L 15230 2650 L 15783 2648 L 16335 2645 L 16345 2623 C 16350 2610 16360 2600 16367 2600 C 16377 2600 16380 2642 16380 2780 C 16380 2973 16377 2982 16333 2934 z" stroke-linecap="round" />
</g>
<g transform="matrix(0.06 0 0 -0.06 282.45 430.96)"  >
<path style="stroke: none; stroke-width: 1; stroke-dasharray: none; stroke-linecap: butt; stroke-dashoffset: 0; stroke-linejoin: miter; stroke-miterlimit: 4; fill: rgb(248,248,248); fill-rule: nonzero; opacity: 1;" vector-effect="non-scaling-stroke"  transform=" translate(-13204.04, -2115.5)" d="M 13062 2915 C 12701 2850 12445 2654 12343 2365 C 12316 2289 12315 2277 12315 2110 C 12315 1944 12317 1931 12343 1855 C 12415 1650 12538 1515 12746 1414 C 12924 1327 13167 1287 13398 1308 C 13630 1329 13777 1378 13952 1496 C 14016 1540 14057 1560 14072 1558 C 14085 1556 14094 1560 14093 1567 C 14088 1592 13877 1881 13866 1877 C 13860 1875 13856 1859 13858 1841 C 13867 1757 13715 1645 13515 1588 C 13403 1556 13165 1556 13045 1589 C 12819 1649 12677 1781 12631 1975 C 12613 2047 12616 2209 12635 2278 C 12672 2404 12760 2519 12870 2583 C 12992 2653 13199 2690 13366 2670 C 13590 2643 13810 2544 13810 2469 C 13810 2426 13837 2425 13863 2468 C 14049 2763 14058 2779 14044 2784 C 14036 2787 14018 2783 14006 2774 C 13984 2760 13976 2762 13886 2799 C 13747 2857 13614 2898 13508 2915 C 13395 2933 13163 2933 13062 2915 z" stroke-linecap="round" />
</g>
<g transform="matrix(0.06 0 0 -0.06 -309.1 430.99)"  >
<path style="stroke: none; stroke-width: 1; stroke-dasharray: none; stroke-linecap: butt; stroke-dashoffset: 0; stroke-linejoin: miter; stroke-miterlimit: 4; fill: rgb(255,255,255); fill-rule: nonzero; opacity: 1;" vector-effect="non-scaling-stroke"  transform=" translate(-3775, -2115.58)" d="M 3540 2895 C 3540 2887 3549 2880 3561 2880 C 3572 2880 3590 2875 3601 2870 C 3620 2860 3620 2841 3620 2121 C 3620 1331 3622 1366 3570 1358 C 3556 1357 3545 1348 3545 1340 C 3545 1327 3579 1325 3778 1322 C 4005 1320 4010 1320 4010 1340 C 4010 1354 4003 1360 3988 1360 C 3932 1361 3935 1319 3932 2106 C 3929 2900 3928 2880 3985 2880 C 4001 2880 4010 2886 4010 2895 C 4010 2908 3977 2910 3775 2910 C 3573 2910 3540 2908 3540 2895 z" stroke-linecap="round" />
</g>
<g transform="matrix(0.06 0 0 -0.06 -193.18 431.02)"  >
<path style="stroke: none; stroke-width: 1; stroke-dasharray: none; stroke-linecap: butt; stroke-dashoffset: 0; stroke-linejoin: miter; stroke-miterlimit: 4; fill: rgb(255,255,255); fill-rule: nonzero; opacity: 1;" vector-effect="non-scaling-stroke"  transform=" translate(-5635, -2115)" d="M 4780 2895 C 4780 2887 4787 2880 4795 2880 C 4803 2880 4814 2871 4820 2861 C 4827 2847 4829 2602 4828 2108 L 4825 1375 L 4803 1365 C 4790 1360 4780 1347 4780 1338 C 4780 1321 4795 1320 4970 1320 C 5153 1320 5160 1321 5160 1340 C 5160 1353 5153 1360 5140 1360 C 5130 1360 5116 1369 5110 1379 C 5097 1405 5096 2473 5110 2468 C 5121 2465 6130 1383 6130 1375 C 6130 1372 6119 1365 6105 1360 C 6091 1355 6080 1344 6080 1335 C 6080 1322 6105 1320 6283 1322 C 6439 1324 6485 1328 6485 1338 C 6485 1345 6474 1356 6460 1363 L 6435 1376 L 6432 2114 C 6431 2652 6433 2857 6441 2866 C 6447 2874 6461 2880 6471 2880 C 6482 2880 6490 2887 6490 2895 C 6490 2908 6462 2910 6295 2910 C 6145 2910 6100 2907 6100 2897 C 6100 2890 6110 2880 6123 2875 L 6145 2865 L 6148 2342 L 6150 1820 L 5664 2335 C 5264 2761 5181 2854 5191 2866 C 5197 2874 5211 2880 5221 2880 C 5232 2880 5240 2887 5240 2895 C 5240 2908 5208 2910 5010 2910 C 4812 2910 4780 2908 4780 2895 z" stroke-linecap="round" />
</g>
<g transform="matrix(0.06 0 0 -0.06 -34.58 431.02)"  >
<path style="stroke: none; stroke-width: 1; stroke-dasharray: none; stroke-linecap: butt; stroke-dashoffset: 0; stroke-linejoin: miter; stroke-miterlimit: 4; fill: rgb(255,255,255); fill-rule: nonzero; opacity: 1;" vector-effect="non-scaling-stroke"  transform=" translate(-8160, -2115)" d="M 7900 2896 C 7900 2889 7909 2880 7920 2877 C 7931 2874 7943 2864 7946 2855 C 7953 2837 7332 1428 7298 1385 C 7287 1371 7272 1360 7264 1360 C 7256 1360 7250 1351 7250 1340 C 7250 1321 7257 1320 7439 1320 C 7638 1320 7660 1325 7621 1361 C 7609 1372 7600 1383 7600 1386 C 7600 1389 7637 1470 7682 1566 L 7764 1740 L 8139 1738 L 8513 1735 L 8596 1560 C 8642 1464 8680 1381 8680 1377 C 8680 1372 8671 1366 8660 1363 C 8649 1360 8640 1349 8640 1339 C 8640 1321 8651 1320 8855 1320 C 9063 1320 9070 1321 9070 1340 C 9070 1353 9063 1360 9051 1360 C 9041 1360 9028 1366 9022 1373 C 8998 1402 8332 2843 8337 2856 C 8339 2863 8350 2872 8361 2875 C 8371 2879 8380 2888 8380 2896 C 8380 2908 8342 2910 8140 2910 C 7942 2910 7900 2908 7900 2896 z M 8261 2259 C 8326 2115 8380 1996 8380 1994 C 8380 1992 8265 1990 8125 1990 C 7985 1990 7870 1992 7870 1995 C 7870 2001 8086 2483 8107 2524 C 8126 2560 8111 2586 8261 2259 z" stroke-linecap="round" />
</g>
<g transform="matrix(0.06 0 0 -0.06 124.2 431.02)"  >
<path style="stroke: none; stroke-width: 1; stroke-dasharray: none; stroke-linecap: butt; stroke-dashoffset: 0; stroke-linejoin: miter; stroke-miterlimit: 4; fill: rgb(255,255,255); fill-rule: nonzero; opacity: 1;" vector-effect="non-scaling-stroke"  transform=" translate(-10685, -2115)" d="M 9830 2896 C 9830 2888 9840 2880 9852 2878 C 9866 2876 9877 2865 9881 2850 C 9890 2819 9892 1424 9883 1392 C 9880 1379 9866 1364 9853 1359 C 9839 1354 9830 1344 9833 1337 C 9836 1328 9886 1324 10028 1322 C 10191 1320 10220 1322 10220 1334 C 10220 1342 10208 1355 10193 1362 L 10165 1375 L 10162 1923 C 10161 2225 10164 2470 10168 2468 C 10187 2461 11180 1387 11180 1374 C 11180 1366 11171 1360 11160 1360 C 11147 1360 11140 1353 11140 1340 C 11140 1321 11147 1320 11340 1320 C 11531 1320 11540 1321 11540 1339 C 11540 1352 11532 1360 11518 1362 C 11504 1364 11493 1375 11489 1390 C 11477 1431 11479 2815 11490 2845 C 11496 2860 11509 2874 11520 2877 C 11531 2880 11540 2889 11540 2896 C 11540 2907 11504 2910 11345 2910 C 11178 2910 11150 2908 11150 2895 C 11150 2887 11158 2880 11169 2880 C 11179 2880 11193 2874 11199 2866 C 11207 2857 11209 2710 11208 2337 L 11205 1822 L 10725 2332 C 10461 2613 10244 2848 10242 2856 C 10240 2865 10250 2872 10269 2876 C 10286 2880 10300 2889 10300 2896 C 10300 2908 10258 2910 10065 2910 C 9868 2910 9830 2908 9830 2896 z" stroke-linecap="round" />
</g>
</svg>