<svg xmlns="http://www.w3.org/2000/svg" xmlns:xlink="http://www.w3.org/1999/xlink" width="600" height="430" viewBox="0 0 600 430">
  <defs>
    <clipPath id="clip-path">
      <rect id="Rectangle_1491" data-name="Rectangle 1491" width="600" height="430" transform="translate(610.094 165.208)" fill="#fff" stroke="#707070" stroke-width="1"/>
    </clipPath>
  </defs>
  <g id="Mask_Group_20" data-name="Mask Group 20" transform="translate(-610.094 -165.208)" clip-path="url(#clip-path)">
    <g id="undraw_secure_files_re_6vdh" transform="translate(615.141 159.647)">
      <path id="Path_3969" data-name="Path 3969" d="M971.738,745.672V696.188S990.946,731.27,971.738,745.672Z" transform="translate(-423.285 -309.894)" fill="#f1f1f1"/>
      <path id="Path_3970" data-name="Path 3970" d="M956.5,753.059,920.19,719.594S958.919,729.113,956.5,753.059Z" transform="translate(-406.858 -317.289)" fill="#f1f1f1"/>
      <path id="Path_3971" data-name="Path 3971" d="M743.255,568.5a6.209,6.209,0,0,1,6.712-6.753l6.545-12.608,8.6,2.125-9.492,17.674a6.228,6.228,0,0,1-12.366-.438Z" transform="translate(-350.462 -263.434)" fill="#ffb7b7"/>
      <path id="Path_3972" data-name="Path 3972" d="M628.861,612.545H621.6l-3.453-28.107h10.712Z" transform="translate(-197 -184.653)" fill="#ffb7b7"/>
      <path id="Path_3973" data-name="Path 3973" d="M792.379,762.963h-23.4v-.3a9.128,9.128,0,0,1,9.108-9.145H792.38Z" transform="translate(-358.667 -328.008)" fill="#2f2e41"/>
      <path id="Path_3974" data-name="Path 3974" d="M711.27,605.044l-7,1.917-10.7-26.2,10.335-2.829Z" transform="translate(-221.035 -182.596)" fill="#ffb7b7"/>
      <path id="Path_3975" data-name="Path 3975" d="M880.876,754.08,858.3,760.262l-.078-.287a9.15,9.15,0,0,1,6.391-11.229h0l13.79-3.775Z" transform="translate(-387.005 -325.306)" fill="#2f2e41"/>
      <path id="Path_3976" data-name="Path 3976" d="M612.729,447.473l-3.62,55.2,7.777,61.93,12.738-3.9.537-55.334,10.19-31.908,30.171,85.222,13.811-5.116-11.4-55.334L666.5,446.262Z" transform="translate(-194.118 -140.996)" fill="#2f2e41"/>
      <path id="Path_3977" data-name="Path 3977" d="M815.842,437.806l-21.452,3.176-7.728,7.674-2.4,27.572,1.49,24.422-6.213,43.067s15.623-8.708,27.73,2.193,29.048,1.926,29.4-5.325Z" transform="translate(-362.034 -228.258)" fill="#0567bf"/>
      <path id="Path_3978" data-name="Path 3978" d="M816.834,472.2v-.031l10.657-34.876.138-.009c.758-.05,18.625-1.107,22.621,7.75l.019.043-1.214,36.243,1.672,56.762-33.044,7.186-.24.053Z" transform="translate(-373.919 -228.074)" fill="#2f2e41"/>
      <path id="Path_3979" data-name="Path 3979" d="M792.644,471.177l1.955-29.565c-13.9.868-13.694,10.766-13.678,11.2l-.152,44.224-2.784,47.312,10.124-.762Z" transform="translate(-361.538 -229.461)" fill="#2f2e41"/>
      <path id="Path_3980" data-name="Path 3980" d="M753.485,542.855l12.344-28.763,8.615-15.885,4.5,28.654-15.617,23.52Z" transform="translate(-353.73 -247.342)" fill="#2f2e41"/>
      <path id="Path_3981" data-name="Path 3981" d="M828.292,541.276a6.193,6.193,0,0,1,8.4-4.464l9.958-10.108,7.594,4.578-14.263,14.076a6.231,6.231,0,0,1-11.687-4.082Z" transform="translate(-377.523 -256.345)" fill="#ffb7b7"/>
      <path id="Path_3982" data-name="Path 3982" d="M840.651,507.977l20.3-22.363-13.44-19.255,1.383-9.414,7.921-9.824.155.2c.844,1.1,20.686,26.978,21.255,36.776.571,9.834-27.948,34.71-29.162,35.764l-.169.147Z" transform="translate(-381.509 -231.201)" fill="#2f2e41"/>
      <ellipse id="Ellipse_217" data-name="Ellipse 217" cx="14.431" cy="14.489" rx="14.431" ry="14.489" transform="translate(427 178.148)" fill="#ffb7b7"/>
      <path id="Path_3983" data-name="Path 3983" d="M820.929,392.434l.7-1.414-3.52-1.756s-3.883-6.344-10.911-4.561-10.189,2.85-10.189,2.85l-3.511,1.774,1.762,1.76-3.161,1.067,2.112,1.054-2.457,1.418,1.323,7.27s2.2-5.514,6.422-3.407,11.951-1.089,11.951-1.089l6.713,13.044s1.385-4.573,3.854-3.353C822.015,407.09,828.323,397,820.929,392.434Z" transform="translate(-365.926 -211.38)" fill="#2f2e41"/>
      <path id="Path_3984" data-name="Path 3984" d="M458.453,394.556,239,455.321,166.738,192.237l219.451-60.765Z" transform="translate(-166.738 -131.472)" fill="#fff"/>
      <path id="Path_3985" data-name="Path 3985" d="M458.453,394.556,239,455.321,166.738,192.237l219.451-60.765ZM241.806,450.362l211.708-58.621-70.129-255.31L171.677,195.052Z" transform="translate(-166.738 -131.472)" fill="#f1f1f1"/>
      <path id="Path_3986" data-name="Path 3986" d="M384.119,275.491l-55.01,15.232a3.037,3.037,0,0,1-3.733-2.128l-15.171-55.231a3.053,3.053,0,0,1,2.119-3.748l55.01-15.232a3.037,3.037,0,0,1,3.733,2.128l15.171,55.231a3.053,3.053,0,0,1-2.119,3.748Zm-71.472-44.7a1.831,1.831,0,0,0-1.271,2.249l15.171,55.231a1.822,1.822,0,0,0,2.24,1.277L383.8,274.316a1.831,1.831,0,0,0,1.271-2.249L369.9,216.836a1.822,1.822,0,0,0-2.24-1.277Z" transform="translate(-212.425 -157.633)" fill="#e5e5e5"/>
      <path id="Path_3987" data-name="Path 3987" d="M363.831,292.041l-55.01,15.232a2.733,2.733,0,0,1-3.36-1.915l-15.171-55.231a2.747,2.747,0,0,1,1.907-3.373l55.009-15.232a2.734,2.734,0,0,1,3.36,1.915l15.171,55.231A2.747,2.747,0,0,1,363.831,292.041Z" transform="translate(-206.082 -163.052)" fill="#0567bf"/>
      <path id="Path_3993" data-name="Path 3993" d="M0,0,159.286-.164l-.006,6.177L-.006,6.177Z" transform="translate(67.964 179.036) rotate(-15.418)" fill="#f1f1f1"/>
      <path id="Path_3994" data-name="Path 3994" d="M0,0,159.286-.164l-.006,6.177L-.006,6.177Z" transform="translate(72.23 194.565) rotate(-15.418)" fill="#f1f1f1"/>
      <path id="Path_3995" data-name="Path 3995" d="M0,0,159.286-.164l-.006,6.177L-.006,6.177Z" transform="translate(76.495 210.094) rotate(-15.418)" fill="#f1f1f1"/>
      <path id="Path_3996" data-name="Path 3996" d="M0,0,159.286-.164l-.006,6.177L-.006,6.177Z" transform="translate(84.003 237.426) rotate(-15.418)" fill="#f1f1f1"/>
      <path id="Path_3997" data-name="Path 3997" d="M0,0,159.286-.164l-.006,6.177L-.006,6.177Z" transform="translate(88.268 252.955) rotate(-15.418)" fill="#f1f1f1"/>
      <path id="Path_3998" data-name="Path 3998" d="M0,0,159.286-.164l-.006,6.177L-.006,6.177Z" transform="translate(92.534 268.484) rotate(-15.418)" fill="#f1f1f1"/>
      <path id="Path_3988" data-name="Path 3988" d="M591.531,477.566H363.887V204.661H591.531Z" transform="translate(-229.568 -154.596)" fill="#fff"/>
      <path id="Path_3989" data-name="Path 3989" d="M591.531,477.566H363.887V204.661H591.531ZM367.9,473.534H587.515V208.693H367.9Z" transform="translate(-229.568 -154.596)" fill="#e5e5e5"/>
      <rect id="Rectangle_1498" data-name="Rectangle 1498" width="130.153" height="6.178" transform="translate(190.363 167.384)" fill="#0567bf"/>
      <rect id="Rectangle_1499" data-name="Rectangle 1499" width="130.153" height="6.178" transform="translate(190.363 183.447)" fill="#0567bf"/>
      <rect id="Rectangle_1500" data-name="Rectangle 1500" width="130.153" height="6.178" transform="translate(190.363 199.511)" fill="#0567bf"/>
      <ellipse id="Ellipse_218" data-name="Ellipse 218" cx="4.016" cy="4.032" rx="4.016" ry="4.032" transform="translate(175.766 167.346)" fill="#0567bf"/>
      <rect id="Rectangle_1501" data-name="Rectangle 1501" width="130.153" height="6.178" transform="translate(190.363 98.165)" fill="#e5e5e5"/>
      <rect id="Rectangle_1502" data-name="Rectangle 1502" width="130.153" height="6.178" transform="translate(190.363 114.229)" fill="#e5e5e5"/>
      <rect id="Rectangle_1503" data-name="Rectangle 1503" width="130.153" height="6.178" transform="translate(190.363 130.292)" fill="#e5e5e5"/>
      <ellipse id="Ellipse_219" data-name="Ellipse 219" cx="4.016" cy="4.032" rx="4.016" ry="4.032" transform="translate(175.766 97.455)" fill="#e5e5e5"/>
      <rect id="Rectangle_1504" data-name="Rectangle 1504" width="130.153" height="6.178" transform="translate(190.363 237.274)" fill="#e5e5e5"/>
      <rect id="Rectangle_1505" data-name="Rectangle 1505" width="130.153" height="6.178" transform="translate(190.363 253.338)" fill="#e5e5e5"/>
      <rect id="Rectangle_1506" data-name="Rectangle 1506" width="130.153" height="6.178" transform="translate(190.363 269.402)" fill="#e5e5e5"/>
      <ellipse id="Ellipse_220" data-name="Ellipse 220" cx="4.016" cy="4.032" rx="4.016" ry="4.032" transform="translate(175.766 236.564)" fill="#e5e5e5"/>
      <ellipse id="Ellipse_221" data-name="Ellipse 221" cx="46.529" cy="46.716" rx="46.529" ry="46.716" transform="translate(304.806 253.038)" fill="#0567bf"/>
      <path id="Path_3990" data-name="Path 3990" d="M686.282,555.214v-8.939a12.891,12.891,0,1,0-25.782,0v8.939a6.718,6.718,0,0,0-6.4,6.72v21.123h38.585V561.933A6.718,6.718,0,0,0,686.282,555.214Zm-12.891-17.325a8.379,8.379,0,0,1,8.352,8.386V555.2h-16.7v-8.923A8.378,8.378,0,0,1,673.391,537.889Z" transform="translate(-322.056 -258.439)" fill="#fff"/>
      <path id="Path_3991" data-name="Path 3991" d="M684.261,578.961a3.471,3.471,0,1,0-5.419,2.878v7.569h3.9v-7.569a3.481,3.481,0,0,0,1.518-2.878Z" transform="translate(-329.458 -271.755)" fill="#6c63ff"/>
      <path id="Path_3992" data-name="Path 3992" d="M910.522,767.49H650.943a.684.684,0,0,1,0-1.368H910.522a.684.684,0,0,1,0,1.368Z" transform="translate(-320.833 -331.989)" fill="#cbcbcb"/>
    </g>
  </g>
</svg>
