<svg width="280" height="220" viewBox="0 0 280 220" fill="none" xmlns="http://www.w3.org/2000/svg">
<g clip-path="url(#clip0_4524_3413)">
<path d="M144.946 26.2792C161.423 45.9999 153.434 59.7585 174.904 76.7274C196.375 93.6964 228.33 84.524 236.819 111.124C248.552 147.893 210.978 159.738 171.409 159.738C137.955 159.738 144.946 185.191 102.005 195.051C76.0413 201.013 51.0759 177.624 60.5627 159.738C70.6363 140.745 100.008 138.641 60.5627 111.124C21.1174 83.6068 50.5765 44.624 68.5516 26.2792C86.5267 7.93441 128.469 6.55854 144.946 26.2792Z" fill="#DFEEFF"/>
<path d="M144.946 26.2792C161.423 45.9999 153.434 59.7585 174.904 76.7274C196.375 93.6964 228.33 84.524 236.819 111.124C248.552 147.893 210.978 159.738 171.409 159.738C137.955 159.738 144.946 185.191 102.005 195.051C76.0413 201.013 51.0759 177.624 60.5627 159.738C70.6363 140.745 100.008 138.641 60.5627 111.124C21.1174 83.6068 50.5765 44.624 68.5516 26.2792C86.5267 7.93441 128.469 6.55854 144.946 26.2792Z" fill="#DFEEFF"/>
<path d="M112.297 14.2357C126.697 6.63567 146.797 2.73567 163.797 14.2357C180.797 25.7357 183.797 54.2357 176.297 68.2357C168.797 82.2357 153.797 96.7357 124.297 98.7357C94.7965 100.736 81.7965 75.7357 85.7965 58.2357C89.7965 40.7357 94.2965 23.7357 112.297 14.2357Z" fill="#F2FBFF"/>
<path fill-rule="evenodd" clip-rule="evenodd" d="M115.932 12.4548C114.685 13.0195 113.472 13.6153 112.297 14.2357C94.2965 23.7357 89.7965 40.7357 85.7965 58.2357C81.7965 75.7357 94.7965 100.736 124.297 98.7356C149.321 97.0391 163.911 86.3476 172.341 74.5967C162.498 65.9746 159.889 58.1038 157.111 49.7253C154.732 42.5466 152.228 34.9952 144.946 26.2792C138.321 18.3497 127.578 13.831 115.932 12.4548Z" fill="#E8F7FF"/>
<path d="M92.538 123.675C109.939 123.675 148.646 137.694 132.033 162.005C115.419 186.316 117.599 207.566 101.428 212.72C85.2562 217.875 70.0116 192.306 39.4674 184.213C18.4462 178.643 23.375 148.138 39.4674 137.694C55.5598 127.251 67.8803 123.675 92.538 123.675Z" fill="#F2FBFF"/>
<path fill-rule="evenodd" clip-rule="evenodd" d="M118.46 189.61C113.92 191.689 108.541 193.551 102.005 195.051C76.0414 201.013 51.0759 177.624 60.5628 159.738C63.3917 154.404 67.7424 150.403 71.6636 146.796C79.0437 140.008 84.9025 134.619 76.23 124.384C81.0716 123.895 86.4258 123.675 92.5382 123.675C109.939 123.675 148.647 137.694 132.033 162.005C125.18 172.032 121.525 181.539 118.46 189.61Z" fill="#E8F7FF"/>
<path d="M186.332 138.78C186.517 123.533 194.04 107.204 220.339 104.582C246.638 101.961 257.679 122.705 257.679 138.78L257.679 138.78C257.679 153.654 257.679 169.211 238.811 185.928C224.548 198.566 207.029 199.644 198.05 185.432C189.071 171.22 186.069 160.386 186.332 138.78Z" fill="#F2FBFF"/>
<path fill-rule="evenodd" clip-rule="evenodd" d="M234.481 105.633C235.387 107.274 236.171 109.095 236.819 111.124C246.937 142.831 220.388 156.004 187.514 159.03C186.583 153.275 186.234 146.763 186.332 138.78C186.517 123.533 194.04 107.204 220.339 104.582C225.668 104.051 230.37 104.479 234.481 105.633Z" fill="#E8F7FF"/>
<rect x="69" y="35" width="108" height="138" fill="#A0D2FF"/>
<rect x="77" y="27" width="108" height="138" fill="#D8E9FF"/>
<g style="mix-blend-mode:multiply" opacity="0.4">
<circle cx="88" cy="83.2627" r="26" fill="#FF2F2F"/>
</g>
<rect x="61" y="56" width="46" height="46" rx="23" fill="#FC7970"/>
<path fill-rule="evenodd" clip-rule="evenodd" d="M84 66.65C82.4635 66.65 80.6731 67.0473 79.2259 68.3095C77.7027 69.6381 76.8928 71.6327 76.8928 74.0886C76.8928 75.458 77.9535 76.5682 79.2619 76.5682C80.5703 76.5682 81.6309 75.458 81.6309 74.0886C81.6309 72.8253 82.0056 72.3403 82.2592 72.1192C82.5887 71.8318 83.1674 71.6091 84 71.6091C84.8326 71.6091 85.4113 71.8318 85.7408 72.1192C85.9944 72.3403 86.3691 72.8253 86.3691 74.0886C86.3691 74.5575 86.253 74.7996 84.9476 75.8243C84.9043 75.8583 84.859 75.8937 84.8119 75.9304L84.8114 75.9307C83.7035 76.7942 81.6309 78.4096 81.6309 81.5272V84.0068H86.3691V81.5272C86.3691 81.0584 86.4851 80.8163 87.7905 79.7916C87.8338 79.7576 87.879 79.7223 87.926 79.6857L87.9267 79.6852C89.0346 78.8216 91.1072 77.2062 91.1072 74.0886C91.1072 71.6327 90.2973 69.6381 88.7741 68.3095C87.3269 67.0473 85.5365 66.65 84 66.65ZM84 91.35C85.4273 91.35 86.5844 90.1545 86.5844 88.6798C86.5844 87.205 85.4273 86.0095 84 86.0095C82.5727 86.0095 81.4156 87.205 81.4156 88.6798C81.4156 90.1545 82.5727 91.35 84 91.35Z" fill="#FFE5E3"/>
<path fill-rule="evenodd" clip-rule="evenodd" d="M188.854 93.4953C197.099 109.749 190.607 129.609 174.353 137.854C158.099 146.099 138.239 139.607 129.994 123.353C121.749 107.099 128.242 87.2391 144.495 78.9941C160.749 70.7491 180.609 77.2416 188.854 93.4953ZM180.543 141.215C197.17 130.535 203.338 108.786 194.205 90.781C184.461 71.572 160.99 63.8991 141.781 73.6432C122.572 83.3873 114.899 106.858 124.643 126.067C133.776 144.072 154.969 151.942 173.408 144.834L177.119 152.149L184.254 148.53L180.543 141.215Z" fill="#407EB5"/>
<path d="M174.017 157.087C173.018 155.117 173.805 152.709 175.775 151.71L184.693 147.186C186.663 146.187 189.07 146.974 190.07 148.944L208.618 185.508C210.617 189.449 209.043 194.263 205.102 196.262L203.319 197.167C199.378 199.166 194.564 197.592 192.565 193.651L174.017 157.087Z" fill="#E1BD00"/>
<rect x="191.208" y="190.976" width="18" height="11" rx="5.5" transform="rotate(-26.8971 191.208 190.976)" fill="#978109"/>
<rect x="177.132" y="154.385" width="3" height="37" transform="rotate(-26.8971 177.132 154.385)" fill="#F0E6B8"/>
<g style="mix-blend-mode:multiply">
<circle cx="159.424" cy="108.424" r="33" transform="rotate(-26.8971 159.424 108.424)" fill="white"/>
</g>
<path fill-rule="evenodd" clip-rule="evenodd" d="M185.128 129.133C182.284 132.667 178.661 135.669 174.353 137.854C158.099 146.099 138.239 139.607 129.994 123.353C126.109 115.694 125.496 107.234 127.635 99.5667C125.902 98.224 124.228 96.8775 122.616 95.5342C119.228 105.211 119.639 116.202 124.643 126.067C133.776 144.072 154.969 151.942 173.408 144.834L177.119 152.149L184.254 148.53L180.543 141.215C184.909 138.41 188.554 134.842 191.39 130.779C189.276 130.271 187.188 129.722 185.128 129.133Z" fill="#04559F"/>
<g style="mix-blend-mode:multiply">
<path fill-rule="evenodd" clip-rule="evenodd" d="M129.859 93.7601C125.399 102.77 125.096 113.698 129.994 123.353C138.239 139.607 158.099 146.099 174.353 137.854C180.65 134.66 185.481 129.723 188.559 123.927C165.468 116.087 145.213 104.552 129.859 93.7601Z" fill="#EAF4FF"/>
</g>
</g>
<defs>
<clipPath id="clip0_4524_3413">
<rect width="280" height="220" fill="white"/>
</clipPath>
</defs>
</svg>
