<svg width="280" height="220" viewBox="0 0 280 220" fill="none" xmlns="http://www.w3.org/2000/svg">
<g clip-path="url(#clip0_4524_3421)">
<path d="M144.946 26.2792C161.423 45.9999 153.434 59.7585 174.904 76.7274C196.375 93.6964 228.33 84.524 236.819 111.124C248.552 147.893 210.978 159.738 171.409 159.738C137.955 159.738 144.946 185.191 102.005 195.051C76.0413 201.013 51.0759 177.624 60.5627 159.738C70.6363 140.745 100.008 138.641 60.5627 111.124C21.1174 83.6068 50.5765 44.624 68.5516 26.2792C86.5267 7.93441 128.469 6.55854 144.946 26.2792Z" fill="#DFEEFF"/>
<path d="M144.946 26.2792C161.423 45.9999 153.434 59.7585 174.904 76.7274C196.375 93.6964 228.33 84.524 236.819 111.124C248.552 147.893 210.978 159.738 171.409 159.738C137.955 159.738 144.946 185.191 102.005 195.051C76.0413 201.013 51.0759 177.624 60.5627 159.738C70.6363 140.745 100.008 138.641 60.5627 111.124C21.1174 83.6068 50.5765 44.624 68.5516 26.2792C86.5267 7.93441 128.469 6.55854 144.946 26.2792Z" fill="#DFEEFF"/>
<path d="M112.297 14.2357C126.697 6.63567 146.797 2.73567 163.797 14.2357C180.797 25.7357 183.797 54.2357 176.297 68.2357C168.797 82.2357 153.797 96.7357 124.297 98.7357C94.7965 100.736 81.7965 75.7357 85.7965 58.2357C89.7965 40.7357 94.2965 23.7357 112.297 14.2357Z" fill="#F2FBFF"/>
<path fill-rule="evenodd" clip-rule="evenodd" d="M115.932 12.4548C114.685 13.0195 113.472 13.6153 112.297 14.2357C94.2965 23.7357 89.7965 40.7357 85.7965 58.2357C81.7965 75.7357 94.7965 100.736 124.297 98.7356C149.321 97.0391 163.911 86.3476 172.341 74.5967C162.498 65.9746 159.889 58.1038 157.111 49.7253C154.732 42.5466 152.228 34.9952 144.946 26.2792C138.321 18.3497 127.578 13.831 115.932 12.4548Z" fill="#E8F7FF"/>
<path d="M92.5382 123.675C109.939 123.675 148.647 137.694 132.033 162.005C115.419 186.316 117.599 207.566 101.428 212.72C85.2563 217.875 70.0117 192.306 39.4675 184.213C18.4463 178.643 23.3752 148.138 39.4676 137.694C55.5599 127.251 67.8805 123.675 92.5382 123.675Z" fill="#F2FBFF"/>
<path fill-rule="evenodd" clip-rule="evenodd" d="M118.46 189.61C113.919 191.689 108.541 193.551 102.005 195.051C76.0412 201.013 51.0758 177.624 60.5627 159.738C63.3915 154.404 67.7422 150.403 71.6634 146.796C79.0436 140.008 84.9024 134.619 76.2299 124.384C81.0714 123.895 86.4257 123.675 92.5381 123.675C109.939 123.675 148.647 137.694 132.033 162.005C125.18 172.032 121.525 181.539 118.46 189.61Z" fill="#E8F7FF"/>
<path d="M186.332 138.78C186.517 123.533 194.04 107.204 220.339 104.582C246.638 101.961 257.679 122.705 257.679 138.78L257.679 138.78C257.679 153.654 257.679 169.211 238.811 185.928C224.548 198.566 207.029 199.644 198.05 185.432C189.071 171.22 186.069 160.386 186.332 138.78Z" fill="#F2FBFF"/>
<path fill-rule="evenodd" clip-rule="evenodd" d="M234.481 105.633C235.387 107.274 236.171 109.095 236.819 111.124C246.937 142.831 220.388 156.004 187.514 159.03C186.583 153.275 186.234 146.763 186.332 138.78C186.517 123.533 194.04 107.204 220.339 104.582C225.668 104.051 230.37 104.479 234.481 105.633Z" fill="#E8F7FF"/>
<path d="M129.229 52.3914C127.483 52.3914 125.939 53.5237 125.414 55.1888L88.3043 172.913H179.087L141.977 55.1888C141.453 53.5237 139.908 52.3914 138.163 52.3914H129.229Z" fill="#FC7970"/>
<rect x="75" y="172.913" width="117.391" height="14.087" fill="#FFBFBF"/>
<path d="M153.924 93.0869H113.467L100.146 135.348H167.245L153.924 93.0869Z" fill="white"/>
<path d="M98.8105 172.913H75V187H96.536L98.8105 172.913Z" fill="#FC7970"/>
<path fill-rule="evenodd" clip-rule="evenodd" d="M102.613 127.522L88.3043 172.913H110.55L117.878 127.525C118.515 116.684 123.535 107.695 131.964 104.384C141.374 100.688 152.486 105.066 160.687 114.544L141.977 55.1888C141.453 53.5237 139.908 52.3914 138.163 52.3914H129.229C127.483 52.3914 125.939 53.5237 125.414 55.1888L102.613 127.522Z" fill="#BF0F02"/>
<path fill-rule="evenodd" clip-rule="evenodd" d="M100.146 135.348L102.613 127.522L113.467 93.0869H153.924L160.687 114.544C152.486 105.066 141.374 100.688 131.964 104.384C123.535 107.695 118.515 116.684 117.878 127.524L116.615 135.348H100.146Z" fill="#D9D9D9"/>
<path d="M172.092 93.0265C172.092 93.0265 172.211 92.7946 172.27 92.6782C184.489 68.5857 181.843 42.6893 157.751 30.4703C121.107 11.8857 111.202 31.4165 98.9829 55.5091C98.9239 55.6255 98.8653 55.742 98.8073 55.8587L172.092 93.0265Z" fill="#CB9000"/>
<path d="M113.666 63.3948C114.405 61.6059 115.222 59.8246 116.118 58.0571C132.048 26.6483 138.36 24.5844 157.127 30.1564C157.334 30.2598 157.542 30.3644 157.751 30.4703C181.844 42.6893 184.489 68.5857 172.27 92.6782C172.211 92.7946 172.092 93.0265 172.092 93.0265L113.666 63.3948Z" fill="#DFBE0A"/>
<ellipse cx="166.946" cy="65.9104" rx="12.3527" ry="16.1994" transform="rotate(3.38992 166.946 65.9104)" fill="#FFE45E"/>
<path d="M159.254 53.1706C158.913 36.8504 142.642 26.5551 134.549 23.4474C137.457 20.437 147.382 17.0986 163.82 27.8275C180.258 38.5563 178.173 54.5425 175.075 61.1944L159.254 53.1706Z" fill="#FFE45E"/>
<path fill-rule="evenodd" clip-rule="evenodd" d="M134.644 23.4842C142.766 26.6348 158.904 36.9082 159.254 53.1561L159.371 53.2297C162.498 47.0642 164.928 35.3685 155.313 28.3565C144.752 20.6544 138.446 22.4272 135.462 23.266C135.155 23.3525 134.882 23.429 134.644 23.4842Z" fill="#CB9000"/>
<path d="M179.77 96.9208C179.77 96.9208 179.799 96.8659 179.813 96.8381C182.722 91.1018 176.952 82.3292 161.35 74.4159C145.747 66.5027 130.905 66.1005 124.13 64.753C117.355 63.4055 98.8203 55.8307 98.8068 55.8586L179.77 96.9208Z" fill="#DFBE0A"/>
<path fill-rule="evenodd" clip-rule="evenodd" d="M157.964 72.807C146.957 67.9159 136.604 66.524 129.548 65.5753C127.417 65.2888 125.587 65.0427 124.13 64.753C118.276 63.5887 103.644 57.7759 99.764 56.2343C99.1531 55.9916 98.8087 55.8548 98.8069 55.8586L134.258 73.8385C141.297 68.7948 150.614 70.0897 157.964 72.807Z" fill="#CB9000"/>
<ellipse cx="170.814" cy="86.7569" rx="4.73396" ry="9.18798" transform="rotate(-56.6432 170.814 86.7569)" fill="#FFE45E"/>
<path d="M163.23 51.6766L161.869 44.8439C161.869 44.8439 161.859 46.5938 160.969 49.2137C160.079 51.8336 159.371 53.2296 159.371 53.2296L175.424 61.3714L163.23 51.6766Z" fill="#DFBE0A"/>
</g>
<defs>
<clipPath id="clip0_4524_3421">
<rect width="280" height="220" fill="white"/>
</clipPath>
</defs>
</svg>
